<?xml version="1.0" encoding="utf-8"?>
<!-- Generator: Adobe Illustrator 25.0.0, SVG Export Plug-In . SVG Version: 6.00 Build 0)  -->
<svg version="1.1" baseProfile="tiny" id="Layer_1" xmlns="http://www.w3.org/2000/svg" xmlns:xlink="http://www.w3.org/1999/xlink"
	 x="0px" y="0px" viewBox="0 0 75 75" overflow="visible" xml:space="preserve">
<path fill="#F9DB00" d="M71.58,12.21c0.33,0.38,0.33,0.95-0.01,1.32l-1.17,1.3l-0.13,0.14c-8.47,9.51-30.11,22.49-33.52,35.38
	c-0.73,2.74-4.23,3.56-6.09,1.4c-5.97-6.92-7.4-6.89-16.06-12.12c-3.86-2.33,1.05-10.57,4.91-8.24C27,35.92,25,34.74,30.5,40.54
	c0.52,0.54,1.42,0.34,1.66-0.37c4.5-13.22,28.03-20.85,36.94-29.2c0.4-0.38,1.03-0.35,1.41,0.05
	C70.88,11.41,71.23,11.81,71.58,12.21z"/>
<g>
	<g>
		
			<line fill="none" stroke="#5A5A5A" stroke-width="3" stroke-linecap="round" stroke-linejoin="round" stroke-miterlimit="10" x1="32.42" y1="8.98" x2="46.65" y2="16.69"/>
		
			<polyline fill="none" stroke="#5A5A5A" stroke-width="3" stroke-linecap="round" stroke-linejoin="round" stroke-miterlimit="10" points="
			32.42,8.98 7.63,22.78 7.76,50.87 31.64,65.85 56.4,51.99 56.63,37.17 		"/>
		<g>
			<path fill="#5A5A5A" d="M5.45,18.88c-2.15,1.2-2.93,3.92-1.72,6.08s3.92,2.93,6.08,1.73c2.16-1.2,2.93-3.93,1.73-6.08
				S7.61,17.68,5.45,18.88z M8.94,25.14c-1.3,0.73-2.95,0.26-3.67-1.04c-0.73-1.3-0.26-2.95,1.04-3.68c1.3-0.73,2.95-0.26,3.68,1.05
				C10.72,22.77,10.24,24.42,8.94,25.14z"/>
			<path fill="#5A5A5A" d="M9.99,21.47c0.73,1.3,0.26,2.95-1.05,3.68c-1.3,0.73-2.95,0.26-3.67-1.04c-0.73-1.3-0.26-2.95,1.04-3.68
				C7.61,19.7,9.26,20.17,9.99,21.47z"/>
		</g>
		<g>
			<circle fill="#5A5A5A" cx="32.42" cy="8.98" r="4.47"/>
			<path fill="#5A5A5A" d="M34.78,7.67c0.73,1.3,0.26,2.95-1.05,3.68c-1.3,0.73-2.95,0.26-3.67-1.04C29.34,9,29.8,7.35,31.1,6.62
				C32.41,5.9,34.06,6.37,34.78,7.67z"/>
		</g>
		<g>
			<circle fill="#5A5A5A" cx="56.4" cy="51.99" r="4.47"/>
			<path fill="#5A5A5A" d="M58.76,50.68c0.73,1.3,0.26,2.95-1.05,3.68c-1.3,0.73-2.95,0.26-3.67-1.04c-0.73-1.3-0.26-2.95,1.04-3.68
				C56.39,48.9,58.04,49.37,58.76,50.68z"/>
		</g>
		<g>
			<circle fill="#5A5A5A" cx="31.6" cy="65.7" r="4.47"/>
			<path fill="#5A5A5A" d="M33.96,64.38c0.73,1.3,0.26,2.95-1.05,3.68c-1.3,0.73-2.95,0.26-3.67-1.04c-0.73-1.3-0.26-2.95,1.04-3.68
				C31.58,62.61,33.23,63.08,33.96,64.38z"/>
		</g>
		<g>
			<circle fill="#5A5A5A" cx="7.63" cy="50.85" r="4.47"/>
			<path fill="#5A5A5A" d="M9.99,49.54c0.73,1.3,0.26,2.95-1.05,3.68c-1.3,0.73-2.95,0.26-3.67-1.04c-0.73-1.3-0.26-2.95,1.04-3.68
				C7.61,47.77,9.26,48.24,9.99,49.54z"/>
		</g>
	</g>
</g>
</svg>
