<?xml version="1.0" encoding="utf-8"?>
<!-- Generator: Adobe Illustrator 25.0.0, SVG Export Plug-In . SVG Version: 6.00 Build 0)  -->
<svg version="1.1" baseProfile="tiny" id="Layer_1" xmlns="http://www.w3.org/2000/svg" xmlns:xlink="http://www.w3.org/1999/xlink"
	 x="0px" y="0px" viewBox="0 0 300 75" overflow="visible" xml:space="preserve">
<g>
	<path fill="#5A5A5A" d="M87.33,21.49c0-0.93,0.18-1.81,0.53-2.64c0.35-0.83,0.84-1.55,1.46-2.16c0.62-0.61,1.34-1.09,2.17-1.46
		c0.83-0.37,1.71-0.55,2.64-0.55h25.82c0.93,0,1.81,0.18,2.64,0.55c0.83,0.37,1.55,0.85,2.17,1.46c0.62,0.61,1.11,1.33,1.46,2.16
		c0.35,0.83,0.53,1.71,0.53,2.64v6.14h-6.8v-6.14H94.14v33.99h25.82V43.93h-12.91v-6.8h19.72v18.35c0,0.93-0.18,1.81-0.53,2.64
		c-0.35,0.83-0.84,1.56-1.46,2.17c-0.62,0.62-1.34,1.11-2.17,1.46c-0.83,0.35-1.71,0.53-2.64,0.53H94.14
		c-0.93,0-1.81-0.18-2.64-0.53c-0.83-0.35-1.55-0.84-2.17-1.46s-1.11-1.34-1.46-2.17c-0.35-0.83-0.53-1.71-0.53-2.64V21.49z"/>
	<path fill="#5A5A5A" d="M132.18,14.69h34.69v6.8h-27.88V35.1h23.8v6.8h-23.8v13.58h27.88v6.8h-34.69V14.69z"/>
	<path fill="#5A5A5A" d="M269.17,37.46c1,0.31,1.9,0.75,2.72,1.33c0.82,0.58,1.52,1.31,2.09,2.21c0.58,0.9,1.02,1.95,1.33,3.17
		c0.31,1.22,0.46,2.61,0.46,4.18v2.39c0,7.7-3.85,11.55-11.55,11.55h-26.06v-47.6h24.69c7.7,0,11.55,3.86,11.55,11.58v0.86
		c0,2.68-0.43,4.86-1.28,6.56C272.29,35.38,270.96,36.64,269.17,37.46z M244.84,21.36V34.9h18.29c1.64-0.07,2.82-0.51,3.54-1.34
		c0.72-0.83,1.08-2.11,1.08-3.83v-3.12c0-1.81-0.4-3.14-1.19-3.98c-0.8-0.84-2.09-1.26-3.88-1.26H244.84z M244.84,41.54v14.07h19.19
		c1.79,0,3.09-0.42,3.88-1.26c0.8-0.84,1.2-2.16,1.2-3.95v-3.68c0-1.81-0.4-3.13-1.2-3.95c-0.8-0.82-2.09-1.23-3.88-1.23H244.84z"/>
	<path fill="#5A5A5A" d="M285.97,14.69v47.6h-6.8v-47.6H285.97z"/>
</g>
<g>
	<g>
		<path fill="#5A5A5A" d="M208.41,41.84l6.81,8.78v-10.7l-6.81-8.76V41.84z M208.41,14.7v10.35l6.81,8.76V14.7H208.41z M208.41,47.6
			v4.02l-12.75-16.45l-6.81-8.78L179.8,14.7H173v47.6h6.81V25.39l7.52,9.7l1.54,1.98v0l6.81,8.78l12.75,16.45h6.81v-5.94
			L208.41,47.6z"/>
	</g>
	<g>
		<path fill="#5A5A5A" d="M188.85,43.32V62.3h6.81V52.09L188.85,43.32z M224.27,14.7v36.91l-9.05-11.68l-6.81-8.78v0l-2.04-2.63
			L195.66,14.7h-6.81v6.07l6.81,8.76v-4.14l12.75,16.45l6.81,8.78l9.05,11.68h6.81V14.7H224.27z M188.85,26.36v10.71l6.81,8.78
			V35.13L188.85,26.36z"/>
	</g>
</g>
<path fill="#F9DB00" d="M78.08,13.21c0.33,0.38,0.33,0.95-0.01,1.32l-1.17,1.3l-0.13,0.14c-8.47,9.51-30.11,22.49-33.52,35.38
	c-0.73,2.74-4.23,3.56-6.09,1.4c-5.97-6.92-7.4-6.89-16.06-12.12c-3.86-2.33,1.05-10.57,4.91-8.24c7.49,4.53,5.49,3.35,10.99,9.15
	c0.52,0.54,1.42,0.34,1.66-0.37c4.5-13.22,28.03-20.85,36.94-29.2c0.4-0.38,1.03-0.35,1.41,0.05
	C77.38,12.41,77.73,12.81,78.08,13.21z"/>
<g>
	<g>
		
			<line fill="none" stroke="#5A5A5A" stroke-width="3" stroke-linecap="round" stroke-linejoin="round" stroke-miterlimit="10" x1="38.92" y1="9.98" x2="53.15" y2="17.69"/>
		
			<polyline fill="none" stroke="#5A5A5A" stroke-width="3" stroke-linecap="round" stroke-linejoin="round" stroke-miterlimit="10" points="
			38.92,9.98 14.13,23.78 14.26,51.87 38.14,66.85 62.9,52.99 63.13,38.17 		"/>
		<g>
			<path fill="#5A5A5A" d="M11.95,19.88c-2.15,1.2-2.93,3.92-1.72,6.08s3.92,2.93,6.08,1.73c2.16-1.2,2.93-3.93,1.73-6.08
				S14.11,18.68,11.95,19.88z M15.44,26.14c-1.3,0.73-2.95,0.26-3.67-1.04c-0.73-1.3-0.26-2.95,1.04-3.68
				c1.3-0.73,2.95-0.26,3.68,1.05C17.22,23.77,16.74,25.42,15.44,26.14z"/>
			<path fill="#5A5A5A" d="M16.49,22.47c0.73,1.3,0.26,2.95-1.05,3.68c-1.3,0.73-2.95,0.26-3.67-1.04c-0.73-1.3-0.26-2.95,1.04-3.68
				C14.11,20.7,15.76,21.17,16.49,22.47z"/>
		</g>
		<g>
			<circle fill="#5A5A5A" cx="38.92" cy="9.98" r="4.47"/>
			<path fill="#5A5A5A" d="M41.28,8.67c0.73,1.3,0.26,2.95-1.05,3.68c-1.3,0.73-2.95,0.26-3.67-1.04C35.84,10,36.3,8.35,37.6,7.62
				C38.91,6.9,40.56,7.37,41.28,8.67z"/>
		</g>
		<g>
			<circle fill="#5A5A5A" cx="62.9" cy="52.99" r="4.47"/>
			<path fill="#5A5A5A" d="M65.26,51.68c0.73,1.3,0.26,2.95-1.05,3.68c-1.3,0.73-2.95,0.26-3.67-1.04c-0.73-1.3-0.26-2.95,1.04-3.68
				C62.89,49.9,64.54,50.37,65.26,51.68z"/>
		</g>
		<g>
			<circle fill="#5A5A5A" cx="38.1" cy="66.7" r="4.47"/>
			<path fill="#5A5A5A" d="M40.46,65.38c0.73,1.3,0.26,2.95-1.05,3.68c-1.3,0.73-2.95,0.26-3.67-1.04c-0.73-1.3-0.26-2.95,1.04-3.68
				C38.08,63.61,39.73,64.08,40.46,65.38z"/>
		</g>
		<g>
			<circle fill="#5A5A5A" cx="14.13" cy="51.85" r="4.47"/>
			<path fill="#5A5A5A" d="M16.49,50.54c0.73,1.3,0.26,2.95-1.05,3.68c-1.3,0.73-2.95,0.26-3.67-1.04c-0.73-1.3-0.26-2.95,1.04-3.68
				C14.11,48.77,15.76,49.24,16.49,50.54z"/>
		</g>
	</g>
</g>
</svg>
